# xmcd CD database file
#
# Track frame offsets:
#	150
#	13015
#	20440
#	29550
#	34598
#	41155
#	47905
#	56213
#	61968
#	68043
#	75063
#	82450
#	92343
#	99843
#	108110
#	117053
#	125150
#	132790
#	139153
#	143208
#	152660
#	158638
#	167123
#	176695
#	183410
#
# Disc length: 2638 seconds
#
# Revision: 2
# Processed by: cddbd v1.5.1PL0 Copyright (c) Steve Scherf et al.
# Submitted via: CDex 1.51
#
DISCID=4c0a4c19
DTITLE=どうようベスト・セレクション - どうようベスト・セレクション
DYEAR=1900
DGENRE=National Folk
TTITLE0=ぞうさん
TTITLE1=いぬのおまわりさん
TTITLE2=アイアイ
TTITLE3=やぎさんゆうびん
TTITLE4=とんぼのめがね
TTITLE5=おつかいありさん
TTITLE6=かわいいかくれんぼ
TTITLE7=ことりのうた
TTITLE8=ちょうちょう
TTITLE9=ぶんぶんぶん
TTITLE10=かえるのうた
TTITLE11=めだかの学校
TTITLE12=あめふりくまのこ
TTITLE13=もりのくまさん
TTITLE14=メリーさんのひつじ
TTITLE15=おんまはみんな
TTITLE16=山の音楽家
TTITLE17=やまのワルツ
TTITLE18=こぶたぬきつねこ
TTITLE19=ねこふんじゃった
TTITLE20=あら どこだ
TTITLE21=あひるのスリッパ
TTITLE22=おさるのかごや
TTITLE23=証城寺のたぬきばやし
TTITLE24=げんこつやまのたぬきさん
EXTD=
EXTT0=
EXTT1=
EXTT2=
EXTT3=
EXTT4=
EXTT5=
EXTT6=
EXTT7=
EXTT8=
EXTT9=
EXTT10=
EXTT11=
EXTT12=
EXTT13=
EXTT14=
EXTT15=
EXTT16=
EXTT17=
EXTT18=
EXTT19=
EXTT20=
EXTT21=
EXTT22=
EXTT23=
EXTT24=
PLAYORDER=
